<mxfile host="app.diagrams.net" agent="Mozilla/5.0 (X11; Linux x86_64) AppleWebKit/537.36 (KHTML, like Gecko) Chrome/128.0.0.0 Safari/537.36" version="24.7.13">
  <diagram name="Página-1" id="mNujcUEmePwyVEtOe3aS">
    <mxGraphModel dx="989" dy="542" grid="1" gridSize="10" guides="1" tooltips="1" connect="1" arrows="1" fold="1" page="1" pageScale="1" pageWidth="827" pageHeight="1169" math="0" shadow="0">
      <root>
        <mxCell id="0" />
        <mxCell id="1" parent="0" />
        <mxCell id="J-elHp4fzdA78TMkCu1B-3" value="" style="edgeStyle=orthogonalEdgeStyle;rounded=0;orthogonalLoop=1;jettySize=auto;html=1;" parent="1" source="J-elHp4fzdA78TMkCu1B-1" target="J-elHp4fzdA78TMkCu1B-2" edge="1">
          <mxGeometry relative="1" as="geometry" />
        </mxCell>
        <mxCell id="J-elHp4fzdA78TMkCu1B-1" value="Modelagem" style="rounded=1;whiteSpace=wrap;html=1;" parent="1" vertex="1">
          <mxGeometry x="269" y="30" width="120" height="60" as="geometry" />
        </mxCell>
        <mxCell id="J-elHp4fzdA78TMkCu1B-5" value="" style="edgeStyle=orthogonalEdgeStyle;rounded=0;orthogonalLoop=1;jettySize=auto;html=1;" parent="1" source="J-elHp4fzdA78TMkCu1B-2" target="J-elHp4fzdA78TMkCu1B-4" edge="1">
          <mxGeometry relative="1" as="geometry" />
        </mxCell>
        <mxCell id="J-elHp4fzdA78TMkCu1B-2" value="Implementação do modelo" style="whiteSpace=wrap;html=1;rounded=1;" parent="1" vertex="1">
          <mxGeometry x="269" y="120" width="120" height="60" as="geometry" />
        </mxCell>
        <mxCell id="0DpMSfXBbk5uJHHE4yQB-1" style="edgeStyle=orthogonalEdgeStyle;rounded=0;orthogonalLoop=1;jettySize=auto;html=1;entryX=0;entryY=0.5;entryDx=0;entryDy=0;dashed=1;" edge="1" parent="1" source="J-elHp4fzdA78TMkCu1B-4" target="J-elHp4fzdA78TMkCu1B-7">
          <mxGeometry relative="1" as="geometry" />
        </mxCell>
        <mxCell id="J-elHp4fzdA78TMkCu1B-4" value="Implementação do ambiente de simulação" style="whiteSpace=wrap;html=1;rounded=1;" parent="1" vertex="1">
          <mxGeometry x="269" y="210" width="120" height="60" as="geometry" />
        </mxCell>
        <mxCell id="J-elHp4fzdA78TMkCu1B-13" value="" style="edgeStyle=orthogonalEdgeStyle;rounded=0;orthogonalLoop=1;jettySize=auto;html=1;" parent="1" source="J-elHp4fzdA78TMkCu1B-7" target="J-elHp4fzdA78TMkCu1B-12" edge="1">
          <mxGeometry relative="1" as="geometry" />
        </mxCell>
        <mxCell id="J-elHp4fzdA78TMkCu1B-7" value="Velocidade de perfil parabólico" style="rounded=1;whiteSpace=wrap;html=1;" parent="1" vertex="1">
          <mxGeometry x="439" y="210" width="120" height="60" as="geometry" />
        </mxCell>
        <mxCell id="0DpMSfXBbk5uJHHE4yQB-2" style="edgeStyle=orthogonalEdgeStyle;rounded=0;orthogonalLoop=1;jettySize=auto;html=1;entryX=0.5;entryY=0;entryDx=0;entryDy=0;" edge="1" parent="1" source="J-elHp4fzdA78TMkCu1B-12" target="J-elHp4fzdA78TMkCu1B-18">
          <mxGeometry relative="1" as="geometry" />
        </mxCell>
        <mxCell id="J-elHp4fzdA78TMkCu1B-12" value="Variação dos parâmetros" style="whiteSpace=wrap;html=1;rounded=1;" parent="1" vertex="1">
          <mxGeometry x="439" y="310" width="120" height="60" as="geometry" />
        </mxCell>
        <mxCell id="J-elHp4fzdA78TMkCu1B-18" value="Análise de metricas" style="rounded=1;whiteSpace=wrap;html=1;" parent="1" vertex="1">
          <mxGeometry x="439" y="400" width="120" height="60" as="geometry" />
        </mxCell>
      </root>
    </mxGraphModel>
  </diagram>
</mxfile>
